<svg xmlns="http://www.w3.org/2000/svg" xmlns:xlink="http://www.w3.org/1999/xlink" width="148" height="48" viewBox="0 0 148 48">
<style type="text/css">
	.st0{fill:url(#Path_85_1_);}
	.st1{fill:#FFFFFF;}
</style>
<g id="logo_-_header" transform="translate(-158 -36)">
	
		<linearGradient id="Path_85_1_" gradientUnits="userSpaceOnUse" x1="-440.4583" y1="460.525" x2="-440.4583" y2="459.525" gradientTransform="matrix(-2.420875e-15 39.6871 -39.5382 -2.430276e-15 18474.7754 17536.1973)">
		<stop offset="0" style="stop-color:#64F4AB"/>
		<stop offset="1" style="stop-color:#327A56"/>
	</linearGradient>
	<path id="Path_85" class="st0" d="M270.1,58.3v13.5h16.1c0.3,0,0.7,0,1,0c0.4,0,0.8-0.1,1.2-0.1c0.4-0.1,0.8-0.1,1.2-0.2   c8.7-1.9,14.2-10.5,12.3-19.2c-1.9-8.7-10.5-14.3-19.2-12.4c-6.2,1.3-11,6.2-12.3,12.4h-3c-0.2,0-0.5,0-0.7,0   c1.9-10.8,12.1-18,22.9-16.1c10.8,1.9,18,12.2,16.1,23c-1.6,9.1-9.3,16-18.5,16.4c-0.2,0-0.3,0-0.5,0c-0.1,0-0.2,0-0.3,0   s-0.2,0-0.2,0l0,0h-19.8V58.4c0.3,0,0.7,0,1,0L270.1,58.3z"/>
</g>
<g id="WSJioH.tif">
</g>
<g>
	<path class="st1" d="M97.8,13.7c0.3-0.1,0.7-0.1,1.1,0c0.1,0,0.2,0.1,0.3,0.1c0.6,0.3,1,0.9,1.1,1.5c0,0.2,0,0.4,0,0.6   c-0.1,0.6-0.5,1.2-1.1,1.4c-0.1,0-0.2,0.1-0.3,0.1c-0.4,0.1-0.9,0.1-1.3-0.1c-0.4-0.2-0.8-0.5-1-1c-0.1-0.2-0.2-0.5-0.2-0.7   c0-0.4,0-0.7,0.2-1.1c0-0.1,0.1-0.1,0.1-0.2c0.2-0.2,0.5-0.4,0.7-0.6C97.5,13.8,97.6,13.8,97.8,13.7z"/>
	<path class="st1" d="M72,16.2c0,0,0.1,0,0.2,0c0,0.1,0,0.2,0,0.3l0,0c0,0.2,0,0.4,0,0.6l0,0c0,0.2,0,0.4,0,0.7l0,0   c0,0.2,0,0.4,0.1,0.6c0,0.2,0,0.4,0.1,0.6c0,0.2,0,0.3,0,0.5l0,0c0,0.1,0,0.2,0,0.3c-0.1,0-0.3,0.1-0.4,0.1c-0.1,0-0.2,0-0.3,0.1   c-0.1,0-0.2,0-0.3,0.1c-0.1,0-0.2,0-0.3,0.1c-0.1,0-0.1,0-0.2,0.1c-0.1,0-0.2,0.1-0.3,0.1c-0.1,0-0.1,0-0.2,0.1   c-0.1,0-0.1,0-0.2,0.1c-0.1,0-0.1,0-0.2,0.1c-0.1,0-0.1,0-0.2,0.1c-0.1,0-0.3,0.1-0.4,0.1c-0.1,0-0.2,0.1-0.3,0.1   c-0.1,0-0.2,0.1-0.3,0.1c-0.3,0.1-0.7,0.3-1,0.4c-0.1,0-0.1,0.1-0.2,0.1c0,0-0.1,0-0.1,0.1c0,0-0.1,0.1-0.1,0.1c0,0-0.1,0-0.1,0.1   c-0.1,0-0.2,0.1-0.3,0.1c-0.1,0-0.2,0.1-0.2,0.1c0.2,0.2,0.4,0.4,0.6,0.5c0.1,0.1,0.3,0.2,0.4,0.4c0,0,0,0.1,0.1,0.1   c0,0,0.1,0,0.1,0.1c0,0,0,0.1,0,0.1l0,0l0,0.1l0.1,0l0,0c0.2,0.3,0.5,0.5,0.7,0.8c0.1,0.1,0.2,0.2,0.2,0.3c0,0.1,0.1,0.1,0.1,0.2   c0,0.1,0.1,0.1,0.1,0.2c0.1,0.1,0.1,0.2,0.2,0.3c0.1,0.1,0.1,0.2,0.2,0.3l0,0c0.1,0.1,0.1,0.3,0.2,0.4c0,0.1,0.1,0.1,0.1,0.2   c0,0.1,0.1,0.2,0.1,0.3c0,0,0,0,0,0.1c0,0.1,0.1,0.2,0.1,0.3l0,0.1c0.1,0.2,0.1,0.3,0.2,0.5l0,0c0,0.1,0,0.2,0,0.3c0,0,0,0,0,0   c0,0.1,0,0.2,0,0.3c0,0,0,0,0,0c0,0.1,0,0.2,0,0.3l0,0c0,0.1,0,0.3,0,0.4c0,0,0,0,0,0c0,0.5,0,1,0,1.5l0,0c0,0.1,0,0.3,0,0.4l0,0   c0,0.2-0.1,0.4-0.1,0.5l0,0c0,0.1-0.1,0.2-0.1,0.2c0,0,0,0,0,0.1c0,0.1-0.1,0.2-0.1,0.3c-0.1,0.1-0.1,0.3-0.2,0.4l0,0.1l0,0   c-0.2,0.4-0.5,0.7-0.9,1c-0.8,0.7-1.8,1.1-2.9,1.2c-1.9,0-3.8,0-5.7,0c-0.8,0-1.6-0.2-2.3-0.7c-0.4,0.2-0.8,0.4-1.2,0.5   c-0.8,0.2-1.6,0.2-2.3,0.2c-0.8,0-1.6-0.2-2.3-0.7c-1.2,0.7-2.6,0.7-3.9,0.5c0,0.2-0.1,0.5-0.2,0.7c-0.1,0.2-0.1,0.4-0.2,0.5   c-0.1,0.2-0.2,0.5-0.3,0.7c0,0-0.1,0.1-0.1,0.1c-0.5,1-1.3,2-2.2,2.6c-1.2,0.9-2.7,1.3-4.2,1.4c-1.4,0.1-2.9-0.1-4.3-0.7   c-1.3-0.6-2.4-1.6-3-2.9c0-0.1-0.1-0.1-0.1-0.2c0-0.1-0.1-0.2-0.1-0.3c-0.1-0.1-0.1-0.3-0.2-0.4c-0.2-0.4-0.3-0.9-0.4-1.3   c0-0.1,0-0.2-0.1-0.3c0-0.2,0-0.3-0.1-0.5c0-0.3,0-0.5-0.1-0.8c0-0.4,0-0.7,0-1.1c0-0.3,0-0.6,0.1-0.9c0-0.2,0-0.4,0.1-0.5   c0-0.1,0-0.3,0.1-0.4c0-0.1,0-0.3,0.1-0.4c0-0.1,0-0.2,0.1-0.3c0-0.1,0-0.2,0.1-0.3c0-0.2,0.1-0.4,0.1-0.5c0-0.1,0.1-0.3,0.1-0.4   c0.1,0,0.1,0,0.2,0.1c0.1,0,0.2,0,0.3,0.1c0.2,0,0.4,0.1,0.5,0.1c0.1,0,0.2,0,0.3,0.1c0.1,0,0.2,0,0.3,0.1c0.4,0.1,0.8,0.2,1.1,0.3   c0.2,0,0.3,0.1,0.5,0.1c0,0.2-0.1,0.3-0.1,0.5c0,0.1,0,0.2-0.1,0.3c0,0.1,0,0.2-0.1,0.3c0,0.1,0,0.2-0.1,0.3c0,0.1,0,0.2,0,0.3   c0,0.2-0.1,0.3-0.1,0.5c-0.1,0.6-0.1,1.2,0,1.8c0,0.1,0,0.3,0.1,0.4c0,0.1,0,0.2,0.1,0.3c0,0.1,0,0.1,0.1,0.2   c0.1,0.2,0.2,0.4,0.3,0.7c0.2,0.3,0.4,0.7,0.7,0.9c0.7,0.7,1.7,1,2.6,1.1c1,0.1,2.1,0,3-0.6c0.6-0.4,1.1-1,1.4-1.6   c0-0.1,0.1-0.2,0.1-0.3c0-0.1,0.1-0.3,0.1-0.4c0.1-0.3,0.2-0.6,0.2-0.9c0-0.2,0-0.4,0.1-0.5c0.1-0.4,0-0.7,0.1-1.1   c0-0.1,0-0.2,0-0.3c0-0.1,0-0.2,0-0.3c0-0.1,0-0.2,0-0.3c-0.1-0.4,0-0.9-0.1-1.3c0-0.3,0-0.5-0.1-0.8c0-0.2,0-0.4,0-0.6l0,0   c0-0.1,0-0.2,0-0.3c0.1,0,0.2,0,0.3,0c0.4-0.1,0.7-0.1,1.1-0.1c0.2,0,0.4,0,0.5-0.1c0.2,0,0.4,0,0.5-0.1c0.2,0,0.4,0,0.5-0.1   c0.2,0,0.4,0,0.6-0.1c0,0.2,0.1,0.3,0.1,0.5c0,0.1,0,0.3,0.1,0.4c0,0.2,0,0.3,0.1,0.5c0,0.2,0,0.4,0.1,0.5c0.1,0.5,0,1.2,0.3,1.6   c0.1,0.2,0.3,0.3,0.5,0.4c0.5,0,1,0,1.5,0c0-0.2,0-0.3,0-0.5c0-0.4,0-0.8,0-1.2c-0.1-0.4,0-0.9-0.1-1.3c0-0.2,0-0.3,0-0.5   c0.1,0,0.2,0,0.4,0c0.2,0,0.4,0,0.6-0.1c0.2,0,0.4,0,0.6-0.1c0.4-0.1,0.8-0.1,1.1-0.1c0.2,0,0.5-0.1,0.7-0.1c0,1.3,0,2.6,0,3.9   c0.7,0,1.4,0,2.1,0c0-0.7,0-1.4,0-2.1l0,0c0-0.7,0-1.3,0-2l0,0c0-0.4,0-0.7,0-1.1c0.2,0,0.5,0,0.7,0c0.2-0.1,0.5,0,0.7-0.1   c0.2,0,0.4,0,0.7-0.1c0.2,0,0.4,0,0.7-0.1c0.2,0,0.4,0,0.7-0.1c0.2,0,0.3,0,0.5-0.1c0,1.9,0,3.7,0,5.6c2,0,3.9,0,5.9,0   c0.2,0,0.3,0,0.5-0.1c0.1-0.1,0.2-0.1,0.3-0.2v0c0,0,0.1-0.1,0.1-0.1c0-0.1,0.1-0.1,0.1-0.2c0,0,0.1-0.1,0.1-0.1c0,0,0,0,0-0.1   c0.1-0.2,0.1-0.5,0.1-0.7c-0.1-0.1,0-0.3-0.1-0.5c0-0.1-0.1-0.2-0.1-0.3c0-0.1-0.1-0.1-0.1-0.2c0,0-0.1-0.1-0.1-0.1   c-0.1-0.1-0.1-0.2-0.2-0.3c-0.1-0.1-0.2-0.2-0.3-0.3l0,0l0,0c-0.3-0.4-0.6-0.6-1-0.9c-0.7-0.5-1.4-0.9-2.1-1.3   c-0.1,0-0.2-0.1-0.2-0.1c0-0.1,0-0.2,0-0.3l0,0c0-0.2,0-0.4,0-0.7l0,0c0-0.2,0-0.5,0-0.7l0,0c0-0.2,0-0.4,0-0.7l0,0   c0-0.3,0-0.6-0.1-0.9c0,0,0.1-0.1,0.1-0.1c0.1-0.1,0.3-0.3,0.4-0.4c0.2-0.2,0.5-0.4,0.7-0.6c0.1-0.1,0.2-0.1,0.3-0.2   c0.4-0.3,0.8-0.6,1.2-0.8c0.4-0.2,0.8-0.5,1.2-0.7c0.7-0.4,1.5-0.7,2.3-1c0.1,0,0.1-0.1,0.2-0.1c0.1,0,0.1,0,0.2-0.1   c0.1,0,0.1,0,0.2-0.1c0.1,0,0.1,0,0.2-0.1c0.1,0,0.1,0,0.2-0.1c0.2,0,0.3-0.1,0.5-0.1c0.1,0,0.2,0,0.3-0.1c0.2,0,0.4-0.1,0.5-0.1   c0.1,0,0.3-0.1,0.4-0.1C71.8,16.2,71.9,16.2,72,16.2z"/>
	<path class="st1" d="M88.1,17.6c0.8-0.1,1.7-0.1,2.5-0.2c0,4,0,8,0,12.1l0,0c0,0.1,0.1,0.2,0.2,0.3c0.9,0,1.7,0,2.6,0   c0.8,0.1,1.7,0,2.5,0.1c0.6,0,1.2,0,1.7,0c0.4,0,0.9-0.1,1.3-0.1c0.3-0.1,0.6-0.1,0.9-0.2c0.1,0,0.1,0,0.2-0.1c0-0.2,0-0.4,0-0.7   c-0.1,0-0.2,0-0.3,0.1c-0.1,0-0.2,0-0.3,0.1c-0.1,0-0.2,0-0.3,0.1c-0.2,0-0.4,0-0.5,0.1c-0.6,0-1.3,0.1-1.9,0c-0.1,0-0.3,0-0.4-0.1   c-0.2,0-0.4-0.1-0.5-0.1c-0.3-0.1-0.6-0.2-0.9-0.4c-0.9-0.6-1.4-1.6-1.6-2.7c0-0.2,0-0.4-0.1-0.6c0-0.5,0-0.9,0-1.4   c0-0.2,0-0.3,0.1-0.5c0-0.3,0.1-0.6,0.2-0.9c0-0.1,0-0.1,0.1-0.2c0.1-0.2,0.2-0.4,0.2-0.5c0.2-0.3,0.3-0.6,0.5-0.8   c0.2-0.2,0.4-0.4,0.6-0.6c0.1-0.1,0.2-0.2,0.3-0.2c0.1-0.1,0.2-0.1,0.3-0.2c0.3-0.2,0.6-0.3,0.9-0.4c0.3-0.1,0.6-0.2,0.9-0.2   c0.2,0,0.4,0,0.7-0.1c0.1,0,0.2,0,0.3,0c0.3,0.1,0.6,0,0.9,0.1c0.3,0,0.6,0.1,0.9,0.2c0.1,0,0.1,0,0.2,0.1c0.2,0.1,0.4,0.2,0.5,0.2   c0.7,0.4,1.3,1,1.7,1.7c0.3,0.4,0.4,0.9,0.6,1.4c0,0.2,0.1,0.4,0.1,0.5c0,0.2,0.1,0.5,0.1,0.7c0,0.2,0,0.4,0.1,0.6   c0.1,0.9,0,1.9,0,2.8c0,0.6,0,1.3,0,1.9c-0.1,0.3-0.1,0.6-0.2,0.9c0,0.1-0.1,0.2-0.1,0.3c-0.1,0.1-0.1,0.2-0.2,0.4   c-0.5,1-1.5,1.8-2.5,2.3c-0.9,0.4-1.9,0.6-2.8,0.6c-2.2,0-4.5,0-6.7,0c-0.7,0-1.5-0.2-2.1-0.7c-0.7,0.5-1.5,0.7-2.4,0.7   c-1.2,0-2.3,0-3.5,0c0,0,0,0.1,0,0.2c0,0.1-0.1,0.2-0.1,0.3c0,0,0,0,0,0.1c0,0-0.1,0.1-0.1,0.1c0,0,0,0.1-0.1,0.1   c0,0.1-0.1,0.2-0.1,0.3c0,0.1-0.1,0.1-0.1,0.2c-0.4,0.6-0.9,1.1-1.4,1.6c-1.3,1-2.6,2-4,2.8c-0.1-0.1-0.1-0.2-0.2-0.3   c0-0.1-0.1-0.1-0.1-0.2c0,0-0.1-0.1-0.1-0.1c-0.1-0.1-0.1-0.2-0.2-0.3c-0.1-0.1-0.2-0.3-0.3-0.4c0-0.1-0.1-0.1-0.1-0.2   c0-0.1-0.1-0.1-0.1-0.2c0,0-0.1-0.1-0.1-0.1c0-0.1-0.1-0.1-0.1-0.2c-0.1-0.1-0.1-0.2-0.2-0.3c0-0.1-0.1-0.1-0.1-0.2   c-0.1-0.2-0.2-0.3-0.3-0.5c0-0.1-0.1-0.2-0.1-0.2c0,0,0,0-0.1,0c1.4-1,2.9-1.8,4.2-2.9c-1,0-2-0.1-2.9-0.4   c-0.9-0.3-1.8-0.8-2.3-1.7c0,0-0.1-0.1-0.1-0.1c-0.1-0.1-0.1-0.2-0.2-0.3c0,0,0,0,0-0.1c0-0.1-0.1-0.2-0.1-0.3   c0-0.1-0.1-0.3-0.1-0.4c0,0,0,0,0,0c0-0.2-0.1-0.4-0.1-0.7l0,0c0-0.2,0-0.3,0-0.5c-0.1-0.6,0-1.2,0-1.8l0,0c0-0.3,0.1-0.6,0.1-0.9   l0,0c0-0.1,0-0.2,0-0.3l0.1,0c0-0.1,0-0.2,0-0.2l0,0c0-0.1,0-0.2,0.1-0.2c0-0.1,0.1-0.1,0.1-0.2c0,0,0,0,0-0.1   c0-0.1,0.1-0.1,0.1-0.2c0.1-0.2,0.2-0.3,0.3-0.5c0.1-0.1,0.1-0.2,0.2-0.3c0.3-0.3,0.5-0.6,0.9-0.9c0.2-0.2,0.5-0.3,0.7-0.5   c0.1-0.1,0.3-0.1,0.4-0.2c0.1,0,0.3-0.1,0.4-0.1c0.3-0.1,0.6-0.2,0.9-0.2c0.4-0.1,0.8,0,1.1,0c0.2,0,0.4,0,0.5,0.1   c0.1,0,0.2,0,0.3,0.1c0.1,0,0.2,0,0.3,0.1c0,0,0.1,0,0.2,0c0.2,0.1,0.4,0.2,0.7,0.3c0.4,0.2,0.7,0.4,1,0.7l0,0v0.1l0.1,0l0,0   c0,0,0.1,0.1,0.1,0.1c0,0,0,0.1,0.1,0.1c0.1,0.1,0.2,0.2,0.3,0.3c0,0.1,0.1,0.1,0.1,0.2l0,0c0,0.1,0.1,0.1,0.1,0.2   c0,0,0.1,0.1,0.1,0.1c0,0.1,0.1,0.1,0.1,0.2c0,0.1,0.1,0.1,0.1,0.2c0,0,0,0.1,0,0.1c0,0.1,0.1,0.2,0.1,0.3l0,0.1   c0,0.1,0.1,0.2,0.1,0.2l0,0c0,0.1,0,0.2,0.1,0.3c0,0,0,0.1,0,0.2l0,0c0,0.1,0,0.2,0,0.3l0,0c0,0.1,0,0.2,0,0.3l0,0   c0,0.2,0,0.3,0,0.5l0,0c0,0.3,0,0.5,0.1,0.8c0,0.5,0,1,0,1.5c1.2,0,2.3,0,3.5,0c0-3.5,0-7,0-10.4l0,0c0-0.6,0-1.1,0-1.7   c0.1,0,0.2,0,0.3,0C87.6,17.7,87.9,17.7,88.1,17.6 M96.9,22.9c-0.2,0.1-0.4,0.3-0.5,0.5c0,0.1-0.1,0.2-0.1,0.3c0,0.1,0,0.2-0.1,0.3   c0,0.2,0,0.3,0,0.5c0,0.1,0,0.2,0,0.3c0,0.1,0.1,0.2,0.1,0.3c0.2,0.4,0.6,0.7,1,0.8c0.1,0,0.2,0,0.3,0.1c0.5,0.1,1,0,1.5,0   c0.2,0,0.3,0,0.5-0.1c0.1,0,0.3-0.1,0.4-0.1c0-0.5,0-0.9-0.1-1.4c-0.1-0.3-0.1-0.5-0.3-0.8c0,0-0.1-0.1-0.1-0.1   c-0.2-0.3-0.4-0.5-0.7-0.7c-0.1,0-0.2-0.1-0.4-0.1C98.1,22.6,97.5,22.7,96.9,22.9 M77.6,26.2c-0.1,0-0.2,0.1-0.3,0.1   c-0.3,0.1-0.5,0.3-0.7,0.6c0,0-0.1,0.1-0.1,0.1c0,0.1-0.1,0.1-0.1,0.2c0,0.1,0,0.2-0.1,0.2l0,0c0,0.1,0,0.2,0,0.3l0,0   c0,0.2,0,0.4,0,0.5l0,0c0,0.2,0,0.3,0.1,0.4c0,0,0,0,0,0.1c0,0.1,0.1,0.2,0.1,0.3c0.4,0.6,1.1,0.8,1.7,0.9c0.6,0,1.2,0.1,1.9,0.1   c0-0.6,0-1.1,0-1.7l0,0c0-0.1,0-0.2,0-0.3C80,27.9,80,27.8,80,27.6l0,0c0-0.1-0.1-0.2-0.1-0.2c0,0,0,0,0-0.1c0,0-0.1-0.1-0.1-0.1   c0,0,0-0.1-0.1-0.1c-0.2-0.2-0.4-0.5-0.6-0.6C78.7,26.2,78.1,26.1,77.6,26.2z"/>
	<path class="st1" d="M4,22.6c0.2,0,0.3,0,0.5-0.1c0.4-0.1,0.8,0,1.2,0c0.6,0.1,1.2,0.2,1.7,0.4c0.9,0.4,1.6,1.1,2.1,2   c0.6,1.1,0.8,2.4,0.9,3.7c0,1.2,0,2.4-0.2,3.5C10,33,9.8,33.8,9.4,34.6c-0.6,1.1-1.4,1.9-2.4,2.6C6,38,4.9,38.7,3.8,39.4   c-0.7-1.1-1.4-2.1-2-3.2c1.3-0.9,2.7-1.6,3.8-2.7c0.3-0.2,0.5-0.5,0.7-0.8c-1,0.4-2.1,0.4-3.1,0.2c-0.8-0.1-1.5-0.5-2-1.1   c-0.7-0.8-1-1.9-1.1-2.9c-0.1-1.3,0-2.6,0.5-3.8c0.4-0.9,1.2-1.6,2-2.1c0.1,0,0.1-0.1,0.2-0.1c0.1-0.1,0.3-0.1,0.4-0.2   c0.2,0,0.3-0.1,0.5-0.1C3.8,22.7,3.9,22.7,4,22.6 M4.6,26.2c-0.5,0-0.9,0.3-1.2,0.7c-0.4,0.6-0.5,1.5-0.1,2.2   c0.2,0.4,0.7,0.7,1.2,0.8c0.1,0,0.3,0,0.4,0.1c0.4,0,0.9,0,1.3,0c0.2,0,0.4-0.1,0.5-0.1c0,0,0.1,0,0.1,0c0-0.9,0.1-1.8-0.4-2.6   c-0.2-0.5-0.6-0.8-1.1-0.9c-0.1,0-0.3,0-0.4-0.1C4.8,26.2,4.7,26.2,4.6,26.2z"/>
	<path class="st1" d="M29.2,24.3c0.2,0,0.3,0,0.5-0.1c0,1.8,0,3.7,0,5.5c0,0.2,0,0.4-0.1,0.6c0,0.2-0.1,0.4-0.1,0.5   c0,0.1,0,0.1-0.1,0.2c-0.6,1.6-2.2,2.6-3.9,2.6c-2.1,0-4.2,0-6.3,0c-0.6,0-1.3-0.1-1.8-0.4c-0.4,0.9-0.9,1.7-1.6,2.4   c-0.5,0.5-1.1,1-1.6,1.4c-1,0.8-2.1,1.5-3.1,2.2c-0.7-1.1-1.4-2.1-2-3.2c0.9-0.6,1.8-1.2,2.8-1.9c0.7-0.5,1.4-1.1,1.9-1.9   c0.4-0.6,0.5-1.3,0.5-2c0-1.6-0.4-3.2-0.8-4.8c0.1,0,0.3-0.1,0.4-0.1c0.1,0,0.2,0,0.3-0.1c0.1,0,0.2,0,0.3-0.1c0.1,0,0.2,0,0.3-0.1   c0.4-0.1,0.8-0.2,1.3-0.3c0.1,0,0.2,0,0.3-0.1c0.1,0,0.2,0,0.3-0.1c0.1,0,0.2,0,0.3-0.1c0.1,0,0.3-0.1,0.4-0.1   c0.3,1.6,0.6,3.2,0.8,4.8c0.1,0.3,0.4,0.4,0.7,0.4c2.5,0,4.9,0,7.4,0c0-0.5,0-1.1-0.1-1.6c0-0.5,0-1.1-0.1-1.6c0-0.1,0-0.2,0-0.3   c0-0.6,0-1.1,0-1.7c0.2,0,0.5,0,0.7-0.1c0.2,0,0.4,0,0.7-0.1c0.2,0,0.4,0,0.7-0.1C28.3,24.4,28.8,24.4,29.2,24.3z"/>
	<path class="st1" d="M21,39.1c0-1.1,0-2.3,0-3.4c2.4,0,4.8,0,7.2,0c0,1.1,0,2.3,0,3.4c-0.9,0-1.8,0-2.6,0c0.2,0.2,0.4,0.4,0.6,0.7   c0,0.1,0.1,0.2,0.1,0.3c0.1,0.4,0,0.9-0.2,1.3c-0.4,0.6-1.1,0.9-1.8,0.7c-0.5-0.1-0.8-0.4-1-0.8c0-0.1-0.1-0.2-0.1-0.3   c-0.1-0.4-0.1-0.7,0.1-1.1c0.1-0.3,0.3-0.5,0.6-0.7C22.8,39.1,21.9,39.1,21,39.1z"/>
</g>
</svg>