<svg xmlns:xlink="http://www.w3.org/1999/xlink" xmlns="http://www.w3.org/2000/svg" width="124" height="124" viewBox="0 0 124 124">
<defs>
<linearGradient id="linear-gradient9" x1="0.5" x2="0.5" y2="1">
<stop offset="0" stop-color="var(--e-global-color-secondary)"></stop>
<stop offset="1" stop-color="var(--e-global-color-text)"></stop>
</linearGradient>
<linearGradient id="linear-gradient9" x1="0.5" x2="0.5" y2="1">
<stop offset="0" stop-color="var(--e-global-color-secondary)"></stop>
<stop offset="1" stop-color="var(--e-global-color-text)"></stop>
</linearGradient></defs>
<path id="circle_shape_-_right_-_achievement_section" d="M-2370,124a61.613,61.613,0,0,1-24.134-4.872,61.794,61.794,0,0,1-19.707-13.287,61.8,61.8,0,0,1-13.287-19.707A61.612,61.612,0,0,1-2432,62a61.612,61.612,0,0,1,4.872-24.133,61.8,61.8,0,0,1,13.287-19.707,61.794,61.794,0,0,1,19.707-13.287A61.613,61.613,0,0,1-2370,0a61.613,61.613,0,0,1,24.133,4.872,61.794,61.794,0,0,1,19.707,13.287,61.794,61.794,0,0,1,13.287,19.707A61.607,61.607,0,0,1-2308,62a61.607,61.607,0,0,1-4.872,24.133,61.794,61.794,0,0,1-13.287,19.707,61.794,61.794,0,0,1-19.707,13.287A61.613,61.613,0,0,1-2370,124Zm0-102a40.046,40.046,0,0,0-40,40,40.045,40.045,0,0,0,40,40,40.045,40.045,0,0,0,40-40A40.045,40.045,0,0,0-2370,22Z" transform="translate(2432)" fill="url(&quot;#linear-gradient9&quot;)"></path>
</svg>